<svg id="Layer_1" data-name="Layer 1" xmlns="http://www.w3.org/2000/svg" width="205.2" height="45.16" viewBox="0 0 205.2 45.16"><defs><style>.cls-1{fill:#008c4b;}.cls-2,.cls-7,.cls-8{fill:none;}.cls-2{stroke:#008c4b;stroke-width:1.53px;}.cls-3{fill:#3fad49;}.cls-4{fill:#f58921;}.cls-5{fill:#d2242a;}.cls-6{fill:#005494;}.cls-7,.cls-8{stroke:#fff;}.cls-7{stroke-width:0.5px;}.cls-8{stroke-width:0.99px;}.cls-9{font-size:9.43px;fill:#f68b20;font-family:ArialMT, Arial;}</style></defs><title>livingstonia-logo</title><path class="cls-1" d="M187.2,7.5c0-1.6.7-2.2,2.8-2.2,6.6,0,10.1,4.5,10.1,10.6S196.5,26.5,190,26.5c-2.2,0-2.8-.6-2.8-2.2Zm4.2,20.4c7.6,0,13.8-4,13.8-12.1s-6.2-12-13.8-12H179.3v.9c2.4.1,3,.4,3,2.9V24.1c0,2.5-.7,2.8-3,2.9v.9Zm-29-21.4c0-.9.4-1.3,2-1.3,2.9,0,5.8,1.6,5.8,5.1,0,3.9-3.1,5.4-7.9,5.5Zm0,10.8H164l8.3,10.6H179V27a2.76,2.76,0,0,1-2.8-1.5l-6.9-8.8c3.5-.9,5.9-2.8,5.9-6.7s-2.8-6.3-10.6-6.3H154.2v.9c2.6.1,3.3.4,3.3,2.9V24c0,2.5-.7,2.8-3.3,2.9v.9h11.5V27c-2.7-.1-3.4-.4-3.4-2.9V17.3ZM150,7.7c0-2.5.7-2.8,3.5-2.9v-1H141.6v.9c2.9.1,3.5.4,3.5,2.9V24.1c0,2.5-.7,2.8-3.5,2.9v.9h11.9V27c-2.9-.1-3.5-.4-3.5-2.9Zm-23.4-.8c0-1.2.7-1.6,1.9-1.6,3.5,0,5.3,2,5.3,4.6,0,3.5-2.1,5.1-7.2,5.1Zm0,9.5c5.5-.1,8.4,1.5,8.4,4.9,0,2.7-2.1,5.3-5.9,5.3-2,0-2.5-.6-2.5-1.5Zm3.9,11.5c6.4,0,9.4-2.8,9.4-6.7,0-3.7-3.5-5.3-6.6-5.9v-.1c2.9-.5,5.4-2.5,5.4-5.5,0-3.9-3.7-5.9-9.5-5.9H118.6v.9c2.6.1,3.3.4,3.3,2.9V24c0,2.5-.7,2.8-3.3,2.9v.9h11.9Zm-18-7.5L98.2,3.8H91.6v.9a4.91,4.91,0,0,1,3.3,2.5V23.4c0,2.3-.6,3.3-3.3,3.6v.9h8.5V27c-2.6-.3-3.3-1.2-3.3-3.6V9.5l16.5,19h1.2V8.3c0-2.3.6-3.3,3.3-3.6V3.8h-8.5v.9c2.6.3,3.3,1.2,3.3,3.6ZM73,7.7c0-2.5.7-2.8,3.1-2.9v-1H65v.9c2.4.1,3.1.4,3.1,2.9v12c0,6.1,3.3,8.8,9.8,8.8,6.9,0,9.3-3.7,9.3-9.4V8.3c0-2.3.6-3.3,3.4-3.6V3.8H82.2v.9c2.6.3,3.2,1.3,3.2,3.6V19.1c0,4.4-2.1,7.3-6.2,7.3-4.4,0-6.2-2.1-6.2-6.2ZM46.4,28.3h1.3a1.21,1.21,0,0,1,1.2-1.2c1.7,0,2.8,1.5,7,1.5s7.5-2.9,7.5-6.7c0-8.5-12.5-8.6-12.5-13.5A3.33,3.33,0,0,1,54.6,5c3.3,0,5.7,2.6,6.7,6h.9V3.3h-.9c-.2.7-.6,1.3-1.3,1.3-1.6,0-2.9-1.3-6.5-1.3s-6.9,2.8-6.9,6.2c0,6.9,12.5,7.9,12.5,13.4a3.8,3.8,0,0,1-3.6,4H55c-3.5,0-6.6-3.3-7.6-6.5h-.9v7.9Z" transform="translate(0 -3.3)"/><line class="cls-2" x1="46.1" y1="30" x2="203" y2="30"/><path class="cls-3" d="M33.8,39.1l-.3.1s-3.9.3-4.8.3A15.58,15.58,0,0,1,13.5,27.4c-7.9-3.2-9.2,8.9-9.2,8.9a20.58,20.58,0,0,0,16.1,7.8,20.17,20.17,0,0,0,13.2-4.9Z" transform="translate(0 -3.3)"/><path class="cls-4" d="M34.3,38.6a21.26,21.26,0,0,0,6.3-14.7,21.35,21.35,0,0,0-3.8-12,24,24,0,0,1-.9,8A16.21,16.21,0,0,1,32.4,26a20.74,20.74,0,0,1-7.3,4.3s-1.6,2.5.9,5.4a8.89,8.89,0,0,0,6.6,3,16,16,0,0,1,1.7-.1" transform="translate(0 -3.3)"/><path class="cls-5" d="M35.7,10.6a20.29,20.29,0,0,0-15.4-7,21.12,21.12,0,0,0-12.1,4,18.83,18.83,0,0,1,7.1.5,18.11,18.11,0,0,1,8.8,5.5,12.89,12.89,0,0,1,2.7,5.8s1.4,1.4,4.2.4,4.2-4.3,4.4-5.1S36,11,36,11Z" transform="translate(0 -3.3)"/><path class="cls-6" d="M6.9,8.6A21.23,21.23,0,0,0,0,23.9,21.4,21.4,0,0,0,3.6,35.4s-.8-8.9,3.3-13.2a15.82,15.82,0,0,1,8.9-4.9s1.2-3.6-1.1-5.6a12.25,12.25,0,0,0-5.6-3,5.52,5.52,0,0,0-2.2-.1" transform="translate(0 -3.3)"/><path class="cls-1" d="M6.2,8.3a15.58,15.58,0,0,1,13.6,1.8c6.6,4.4,6.8,9.4,6.8,9.4a4.86,4.86,0,0,0,6.1-.9c2.9-3,3.3-8,3.3-8s1.5,2.3.3,7.7a15.18,15.18,0,0,1-6,9.4A19.84,19.84,0,0,1,25,30.2a4.38,4.38,0,0,0,.5,5.1A9.29,9.29,0,0,0,32,38.7c1,.1,2.6.2,2.6.2-1.4.2-2.8.4-4.3.5a16,16,0,0,1-11.4-3.3,14.93,14.93,0,0,1-5.6-8.5,5.52,5.52,0,0,0-4.7,0c-2.4,1.3-3.4,4.2-4.2,7,0,0-.4,1.6-.6,2.6-.2-2.1-.2-4.2-.2-6.2.2-1.5.9-6.5,3.5-9s6.7-4.4,8.6-4.6c0,0,1-2.9-.5-4.9a11.43,11.43,0,0,0-4.1-3.1A13.48,13.48,0,0,0,6.2,8.3" transform="translate(0 -3.3)"/><path class="cls-7" d="M6.2,8.3a15.58,15.58,0,0,1,13.6,1.8c6.6,4.4,6.8,9.4,6.8,9.4a4.86,4.86,0,0,0,6.1-.9c2.9-3,3.3-8,3.3-8s1.5,2.3.3,7.7a15.18,15.18,0,0,1-6,9.4A19.84,19.84,0,0,1,25,30.2a4.38,4.38,0,0,0,.5,5.1A9.29,9.29,0,0,0,32,38.7c1,.1,2.6.2,2.6.2-1.4.2-2.8.4-4.3.5a16,16,0,0,1-11.4-3.3,14.93,14.93,0,0,1-5.6-8.5,5.52,5.52,0,0,0-4.7,0c-2.4,1.3-3.4,4.2-4.2,7,0,0-.4,1.6-.6,2.6-.2-2.1-.2-4.2-.2-6.2.2-1.5.9-6.5,3.5-9s6.7-4.4,8.6-4.6c0,0,1-2.9-.5-4.9a11.43,11.43,0,0,0-4.1-3.1A13.48,13.48,0,0,0,6.2,8.3Z" transform="translate(0 -3.3)"/><path class="cls-8" d="M20.3,26.9a3,3,0,1,0-3-3,2.81,2.81,0,0,0,.7,1.9A3,3,0,0,0,20.3,26.9Z" transform="translate(0 -3.3)"/><text class="cls-9" transform="translate(124.49 42.1)">Livingstonia Beach</text></svg>